<svg width="24" height="24" viewBox="0 0 24 24" fill="none" xmlns="http://www.w3.org/2000/svg">
<path d="M7.92 13.4697C9.33 13.4697 10.46 14.6107 10.46 16.0307V19.4397C10.46 20.8497 9.33 21.9997 7.92 21.9997H4.54C3.14 21.9997 2 20.8497 2 19.4397V16.0307C2 14.6107 3.14 13.4697 4.54 13.4697H7.92ZM19.4601 13.4697C20.8601 13.4697 22.0001 14.6107 22.0001 16.0307V19.4397C22.0001 20.8497 20.8601 21.9997 19.4601 21.9997H16.0801C14.6701 21.9997 13.5401 20.8497 13.5401 19.4397V16.0307C13.5401 14.6107 14.6701 13.4697 16.0801 13.4697H19.4601ZM19.4601 1.99997C20.8601 1.99997 22.0001 3.14997 22.0001 4.56097V7.96997C22.0001 9.38997 20.8601 10.53 19.4601 10.53H16.0801C14.6701 10.53 13.5401 9.38997 13.5401 7.96997V4.56097C13.5401 3.14997 14.6701 1.99997 16.0801 1.99997H19.4601Z" fill="url(#paint0_linear_7998_489)"/>
<path d="M10.46 4.561C10.46 3.15 9.33 2 7.92 2H4.54C3.14 2 2 3.15 2 4.561V7.97C2 9.39 3.14 10.53 4.54 10.53H7.92C9.33 10.53 10.46 9.39 10.46 7.97V4.561Z" fill="url(#paint1_linear_7998_489)"/>
<defs>
<linearGradient id="paint0_linear_7998_489" x1="12" y1="1.99997" x2="12" y2="21.9997" gradientUnits="userSpaceOnUse">
<stop stop-color="#3461FF"/>
<stop offset="1" stop-color="#8454EB"/>
</linearGradient>
<linearGradient id="paint1_linear_7998_489" x1="2" y1="6.265" x2="10.46" y2="6.265" gradientUnits="userSpaceOnUse">
<stop stop-color="#00F5A0"/>
<stop offset="1" stop-color="#00D9F5"/>
</linearGradient>
</defs>
</svg>
