<svg width="24" height="24" viewBox="0 0 24 24" fill="none" xmlns="http://www.w3.org/2000/svg">
<path fill-rule="evenodd" clip-rule="evenodd" d="M16.659 1.99997C19.989 1.99997 22.5 4.71697 22.5 8.31997V15.188C22.5 17.032 21.848 18.698 20.663 19.88C19.6 20.939 18.221 21.5 16.675 21.5H6.822C5.279 21.5 3.901 20.94 2.837 19.88C1.652 18.698 1 17.032 1 15.188V8.31997C1 4.71697 3.511 1.99997 6.841 1.99997H16.659ZM16.659 3.49997H6.841C4.326 3.49997 2.5 5.52697 2.5 8.31997V15.188C2.5 16.631 2.996 17.92 3.896 18.817C4.672 19.592 5.685 20 6.825 20H16.659C16.661 19.998 16.669 20 16.675 20C17.816 20 18.828 19.592 19.604 18.817C20.505 17.92 21 16.631 21 15.188V8.31997C21 5.52697 19.174 3.49997 16.659 3.49997ZM18.235 8.12877C18.496 8.44977 18.447 8.92177 18.126 9.18377L13.682 12.7958C13.12 13.2418 12.448 13.4648 11.777 13.4648C11.108 13.4648 10.441 13.2438 9.883 12.8018L5.398 9.18577C5.075 8.92577 5.025 8.45277 5.284 8.13077C5.545 7.80977 6.017 7.75877 6.339 8.01777L10.82 11.6298C11.383 12.0758 12.176 12.0758 12.743 11.6258L17.179 8.01977C17.501 7.75677 17.973 7.80677 18.235 8.12877Z" fill="url(#paint0_linear_7998_472)"/>
<defs>
<linearGradient id="paint0_linear_7998_472" x1="1" y1="11.75" x2="22.5" y2="11.75" gradientUnits="userSpaceOnUse">
<stop stop-color="#02AAB0"/>
<stop offset="1" stop-color="#00CDAC"/>
</linearGradient>
</defs>
</svg>
