<svg xmlns="http://www.w3.org/2000/svg" version="1.1" width="512" height="512" x="0" y="0" viewBox="0 0 16.933 16.933" style="enable-background:new 0 0 512 512" xml:space="preserve"><g><path fill="#00cdac" d="M13.959.27c-.166 0-.334.025-.5.078C9.45 1.616 5.445 2.889 1.442 4.158A1.688 1.688 0 0 0 .344 6.276l.09.28c-.108.216-.17.456-.17.712A1.61 1.61 0 0 0 1.87 8.87c.816 0 1.492-.616 1.59-1.406h1.975L4.132 9.387H1.025C.86 9.385.72 9.543.72 9.7v5.313c0 .93.755 1.687 1.684 1.687h12.608c.929 0 1.684-.757 1.684-1.687v-4.33c.008-.361-.538-.361-.53 0v4.33c0 .645-.51 1.157-1.154 1.157H2.404a1.147 1.147 0 0 1-1.154-1.157V9.917c5.06.002 10.119 0 15.182 0a.265.265 0 0 0 .265-.265l-.002-1.627c0-.6-.473-1.09-1.049-1.09-4.067-.004-8.136 0-12.207 0l-.005-.019C7.592 5.6 11.811 4.262 15.372 3.131c.396-.106.568-.469.456-.888l-.253-.798A1.69 1.69 0 0 0 13.96.27zm.119.532c.448.04.845.343.99.804l.253.794c.041.16-.009.189-.118.229l-.37.117L12.71 1.14l.908-.288c.154-.048.31-.064.459-.05zm-1.985.534 2.12 1.606-2.5.793-2.264-1.56zM8.809 2.378l2.264 1.56-2.356.748-2.303-1.548zm-3.041.965L8.07 4.89l-2.338.74-2.548-1.47zM2.5 4.378l2.547 1.47-1.816.577a1.598 1.598 0 0 0-2.397-.38 1.144 1.144 0 0 1 .767-1.382zM1.87 6.193a1.07 1.07 0 0 1 1.074 1.074A1.07 1.07 0 0 1 1.87 8.34 1.071 1.071 0 0 1 .794 7.267c0-.597.48-1.074 1.076-1.074zm4.205 1.272h2.518L7.555 9.387H4.773zm3.12 0h2.235l-.97 1.922H8.158zm2.828 0h2.543l-.949 1.922h-2.564zm3.134 0h.49c.273 0 .518.235.518.56l.002 1.362h-1.958zm-12.65 4.99c-.362-.008-.362.538 0 .53h7.33c.362.008.362-.538 0-.53zm2.957 1.57c-.991.002-1.993 0-2.984 0-.325.041-.302.52.026.529h2.929c.364.032.394-.521.029-.53z" class=""/></g></svg>