<svg width="50" height="60" viewBox="0 0 50 60" fill="none" xmlns="http://www.w3.org/2000/svg">
<g filter="url(#filter0_d_8016_340)">
<path d="M22.0959 9.00053C20.8973 9.00087 19.7479 9.47645 18.9003 10.3227C18.0528 11.169 17.5765 12.3166 17.5762 13.5134V15.5636H15.5229C14.9289 15.5631 14.3407 15.6795 13.7918 15.9063C13.243 16.133 12.7443 16.4656 12.3243 16.885C11.9043 17.3044 11.5713 17.8023 11.3442 18.3503C11.1171 18.8984 11.0005 19.4858 11.0011 20.0788V24.5902H17.5751V28.6904H15.5219C14.3229 28.6903 13.173 29.1656 12.325 30.0119C11.477 30.8582 11.0004 32.0061 11 33.2032V41H15.524C16.1174 40.9998 16.7049 40.8828 17.2531 40.6556C17.8012 40.4287 18.2991 40.0961 18.7185 39.6769C19.1379 39.2577 19.4704 38.7601 19.6972 38.2125C19.9239 37.6648 20.0404 37.0782 20.04 36.4857H20.0458V33.507L20.0337 33.5086V14.5319L20.0437 14.5343V13.5142C20.0448 12.9703 20.2613 12.4489 20.6459 12.0637C21.0306 11.6786 21.5522 11.4611 22.097 11.4586H29.949V13.5142C29.9474 14.0579 29.7301 14.5788 29.3449 14.963C28.9596 15.3471 28.4377 15.5634 27.8932 15.5643H20.973V18.025H27.8921C29.0907 18.0251 30.2402 17.5498 31.0878 16.7036C31.9355 15.8574 32.4117 14.7097 32.4118 13.5129V9L22.0959 9.00053ZM17.5762 22.1292H13.4681V20.0791C13.469 19.5345 13.6857 19.0125 14.071 18.627C14.4562 18.2415 14.9786 18.0239 15.524 18.0219H17.5772L17.5762 22.1292ZM17.5762 36.488C17.5753 37.0315 17.3587 37.5528 16.9739 37.9373C16.5891 38.322 16.0674 38.5388 15.5229 38.5401H13.467V33.2046C13.4675 32.6606 13.6844 32.1391 14.0699 31.7546C14.4554 31.3701 14.9781 31.1543 15.5229 31.1545H17.5762V36.488ZM20.973 24.5899H26.1587V26.6421C26.1567 27.1857 25.9393 27.7064 25.5541 28.0905C25.169 28.4746 24.6472 28.6909 24.1028 28.6922H20.973V31.1545H24.1039C24.6975 31.1548 25.2854 31.0383 25.8339 30.8116C26.3824 30.5849 26.8808 30.2525 27.3005 29.8334C27.7203 29.4143 28.0532 28.9166 28.2802 28.369C28.5072 27.8213 28.6239 27.2343 28.6236 26.6416H28.6257V22.1287H20.973V24.5899Z" fill="url(#paint0_linear_8016_340)"/>
</g>
<defs>
<filter id="filter0_d_8016_340" x="0" y="0" width="49.4119" height="60" filterUnits="userSpaceOnUse" color-interpolation-filters="sRGB">
<feFlood flood-opacity="0" result="BackgroundImageFix"/>
<feColorMatrix in="SourceAlpha" type="matrix" values="0 0 0 0 0 0 0 0 0 0 0 0 0 0 0 0 0 0 127 0" result="hardAlpha"/>
<feOffset dx="3" dy="5"/>
<feGaussianBlur stdDeviation="7"/>
<feComposite in2="hardAlpha" operator="out"/>
<feColorMatrix type="matrix" values="0 0 0 0 0.347833 0 0 0 0 0.241667 0 0 0 0 1 0 0 0 0.54 0"/>
<feBlend mode="normal" in2="BackgroundImageFix" result="effect1_dropShadow_8016_340"/>
<feBlend mode="normal" in="SourceGraphic" in2="effect1_dropShadow_8016_340" result="shape"/>
</filter>
<linearGradient id="paint0_linear_8016_340" x1="21.7059" y1="9" x2="21.7059" y2="41" gradientUnits="userSpaceOnUse">
<stop stop-color="#3461FF"/>
<stop offset="1" stop-color="#8454EB"/>
</linearGradient>
</defs>
</svg>
